<?xml version="1.0" encoding="UTF-8"?>
<!DOCTYPE svg PUBLIC "-//W3C//DTD SVG 1.1//EN" "http://www.w3.org/Graphics/SVG/1.1/DTD/svg11.dtd">
<!-- Creator: CorelDRAW 2020 (64-Bit) -->
<svg xmlns="http://www.w3.org/2000/svg" xml:space="preserve" width="150px" height="150px" version="1.1" style="shape-rendering:geometricPrecision; text-rendering:geometricPrecision; image-rendering:optimizeQuality; fill-rule:evenodd; clip-rule:evenodd"
viewBox="0 0 150 150"
 xmlns:xlink="http://www.w3.org/1999/xlink"
 xmlns:xodm="http://www.corel.com/coreldraw/odm/2003">
 <defs>
  <style type="text/css">
   <![CDATA[
    .fil0 {fill:#E86462;fill-rule:nonzero}
   ]]>
  </style>
 </defs>
 <g id="Layer_x0020_1">
  <metadata id="CorelCorpID_0Corel-Layer"/>
  <path class="fil0" d="M22.36 108.07c9.55,6.14 20.91,9.71 33.11,9.71 40.1,0 62.76,-33.87 61.39,-64.26 4.23,-3.04 7.89,-6.84 10.78,-11.18 -3.87,1.72 -8.03,2.88 -12.4,3.4 4.46,-2.67 7.88,-6.9 9.5,-11.95 -4.18,2.48 -8.8,4.28 -13.72,5.25 -3.94,-4.2 -9.55,-6.82 -15.77,-6.82 -13.94,0 -24.19,13.01 -21.04,26.52 -17.95,-0.9 -33.87,-9.5 -44.52,-22.57 -5.66,9.71 -2.94,22.41 6.68,28.84 -3.54,-0.11 -6.88,-1.09 -9.79,-2.7 -0.23,10.01 6.94,19.36 17.33,21.45 -3.04,0.83 -6.37,1.02 -9.75,0.37 2.74,8.59 10.72,14.83 20.18,15 -9.08,7.12 -20.53,10.3 -31.98,8.94z"/>
 </g>
</svg>
