<?xml version="1.0" encoding="UTF-8"?>
<!DOCTYPE svg PUBLIC "-//W3C//DTD SVG 1.1//EN" "http://www.w3.org/Graphics/SVG/1.1/DTD/svg11.dtd">
<!-- Creator: CorelDRAW 2020 (64-Bit) -->
<svg xmlns="http://www.w3.org/2000/svg" xml:space="preserve" width="150px" height="150px" version="1.1" style="shape-rendering:geometricPrecision; text-rendering:geometricPrecision; image-rendering:optimizeQuality; fill-rule:evenodd; clip-rule:evenodd"
viewBox="0 0 150 150"
 xmlns:xlink="http://www.w3.org/1999/xlink"
 xmlns:xodm="http://www.corel.com/coreldraw/odm/2003">
 <defs>
  <style type="text/css">
   <![CDATA[
    .fil0 {fill:#E86462;fill-rule:nonzero}
   ]]>
  </style>
 </defs>
 <g id="Layer_x0020_1">
  <metadata id="CorelCorpID_0Corel-Layer"/>
  <g id="_1938805109376">
   <path class="fil0" d="M87.35 72.42l-39.92 0 0.05 11.44 26.92 0c-3.19,13.92 -13.01,22.45 -26.2,22.45 -17.3,0 -31.32,-14.02 -31.32,-31.31 0,-17.3 14.02,-31.32 31.32,-31.32 8.22,0 15.7,3.18 21.29,8.36l8.83 -7.61c-7.75,-7.64 -18.38,-12.36 -30.12,-12.36 -23.71,0 -42.93,19.22 -42.93,42.93 0,23.71 19.22,42.93 42.93,42.93 22.77,0 39.22,-17.37 39.22,-41.08l-0.07 -4.43z"/>
   <polygon class="fil0" points="144.73,72.9 128.25,72.9 128.25,56.42 117.74,56.42 117.74,72.9 101.26,72.9 101.26,83.41 117.74,83.41 117.74,99.89 128.25,99.89 128.25,83.41 144.73,83.41 "/>
  </g>
 </g>
</svg>
