<?xml version="1.0" encoding="UTF-8"?>
<!DOCTYPE svg PUBLIC "-//W3C//DTD SVG 1.1//EN" "http://www.w3.org/Graphics/SVG/1.1/DTD/svg11.dtd">
<!-- Creator: CorelDRAW 2020 (64-Bit) -->
<svg xmlns="http://www.w3.org/2000/svg" xml:space="preserve" width="150px" height="150px" version="1.1" style="shape-rendering:geometricPrecision; text-rendering:geometricPrecision; image-rendering:optimizeQuality; fill-rule:evenodd; clip-rule:evenodd"
viewBox="0 0 150 150"
 xmlns:xlink="http://www.w3.org/1999/xlink"
 xmlns:xodm="http://www.corel.com/coreldraw/odm/2003">
 <defs>
  <style type="text/css">
   <![CDATA[
    .fil0 {fill:#E86462;fill-rule:nonzero}
   ]]>
  </style>
 </defs>
 <g id="Layer_x0020_1">
  <metadata id="CorelCorpID_0Corel-Layer"/>
  <path class="fil0" d="M59.94 134.73l24.06 0 0 -60.24 16.78 0 1.79 -20.17 -18.57 0c0,0 0,-7.53 0,-11.48 0,-4.75 0.95,-6.63 5.55,-6.63 3.7,0 13.02,0 13.02,0l0 -20.94c0,0 -13.73,0 -16.66,0 -17.9,0 -25.97,7.89 -25.97,22.97 0,13.15 0,16.08 0,16.08l-12.51 0 0 20.42 12.51 0 0 59.99z"/>
 </g>
</svg>
