<?xml version="1.0" encoding="UTF-8"?>
<!DOCTYPE svg PUBLIC "-//W3C//DTD SVG 1.1//EN" "http://www.w3.org/Graphics/SVG/1.1/DTD/svg11.dtd">
<!-- Creator: CorelDRAW 2020 (64-Bit) -->
<svg xmlns="http://www.w3.org/2000/svg" xml:space="preserve" width="150px" height="150px" version="1.1" style="shape-rendering:geometricPrecision; text-rendering:geometricPrecision; image-rendering:optimizeQuality; fill-rule:evenodd; clip-rule:evenodd"
viewBox="0 0 150 150"
 xmlns:xlink="http://www.w3.org/1999/xlink"
 xmlns:xodm="http://www.corel.com/coreldraw/odm/2003">
 <defs>
  <style type="text/css">
   <![CDATA[
    .fil0 {fill:#E86462;fill-rule:nonzero}
   ]]>
  </style>
 </defs>
 <g id="Layer_x0020_1">
  <metadata id="CorelCorpID_0Corel-Layer"/>
  <g id="_1938807309552">
   <path class="fil0" d="M75 20.82c-14.71,0 -16.56,0.07 -22.34,0.33 -5.76,0.26 -9.7,1.18 -13.15,2.52 -3.56,1.38 -6.58,3.23 -9.59,6.25 -3.02,3.01 -4.87,6.03 -6.25,9.59 -1.34,3.45 -2.26,7.39 -2.52,13.15 -0.26,5.78 -0.33,7.63 -0.33,22.34 0,14.71 0.07,16.56 0.33,22.34 0.26,5.76 1.18,9.7 2.52,13.15 1.38,3.56 3.23,6.58 6.25,9.59 3.01,3.02 6.03,4.87 9.59,6.25 3.45,1.34 7.39,2.26 13.15,2.52 5.78,0.26 7.63,0.33 22.34,0.33 14.71,0 16.56,-0.07 22.34,-0.33 5.76,-0.26 9.7,-1.18 13.15,-2.52 3.56,-1.38 6.58,-3.23 9.59,-6.25 3.02,-3.01 4.87,-6.03 6.26,-9.59 1.33,-3.45 2.25,-7.39 2.51,-13.15 0.26,-5.78 0.33,-7.63 0.33,-22.34 0,-14.71 -0.07,-16.56 -0.33,-22.34 -0.26,-5.76 -1.18,-9.7 -2.51,-13.15 -1.39,-3.56 -3.24,-6.58 -6.26,-9.59 -3.01,-3.02 -6.03,-4.87 -9.59,-6.25 -3.45,-1.34 -7.39,-2.26 -13.15,-2.52 -5.78,-0.26 -7.63,-0.33 -22.34,-0.33zm0 9.77c14.47,0 16.18,0.05 21.89,0.31 5.28,0.24 8.15,1.12 10.06,1.87 2.53,0.98 4.33,2.15 6.23,4.05 1.9,1.9 3.07,3.7 4.05,6.23 0.75,1.91 1.63,4.78 1.87,10.06 0.26,5.71 0.31,7.42 0.31,21.89 0,14.47 -0.05,16.18 -0.31,21.89 -0.24,5.29 -1.12,8.15 -1.87,10.06 -0.98,2.53 -2.15,4.33 -4.05,6.23 -1.9,1.9 -3.7,3.07 -6.23,4.05 -1.91,0.75 -4.78,1.63 -10.06,1.87 -5.71,0.26 -7.42,0.32 -21.89,0.32 -14.47,0 -16.18,-0.06 -21.89,-0.32 -5.29,-0.24 -8.15,-1.12 -10.06,-1.87 -2.53,-0.98 -4.34,-2.15 -6.23,-4.05 -1.9,-1.9 -3.07,-3.7 -4.05,-6.23 -0.75,-1.91 -1.63,-4.77 -1.87,-10.06 -0.26,-5.71 -0.31,-7.42 -0.31,-21.89 0,-14.47 0.05,-16.18 0.31,-21.89 0.24,-5.28 1.12,-8.15 1.87,-10.06 0.98,-2.53 2.15,-4.33 4.05,-6.23 1.89,-1.9 3.7,-3.07 6.23,-4.05 1.91,-0.75 4.77,-1.63 10.06,-1.87 5.71,-0.26 7.42,-0.31 21.89,-0.31z"/>
   <path class="fil0" d="M75 93.06c-9.97,0 -18.06,-8.09 -18.06,-18.06 0,-9.98 8.09,-18.06 18.06,-18.06 9.98,0 18.06,8.08 18.06,18.06 0,9.97 -8.08,18.06 -18.06,18.06zm0 -45.88c-15.36,0 -27.82,12.46 -27.82,27.82 0,15.37 12.46,27.82 27.82,27.82 15.36,0 27.82,-12.45 27.82,-27.82 0,-15.36 -12.46,-27.82 -27.82,-27.82z"/>
   <path class="fil0" d="M110.42 46.08c0,3.59 -2.91,6.5 -6.5,6.5 -3.59,0 -6.5,-2.91 -6.5,-6.5 0,-3.59 2.91,-6.5 6.5,-6.5 3.59,0 6.5,2.91 6.5,6.5z"/>
  </g>
 </g>
</svg>
